<svg width="20" height="20" viewBox="0 0 20 20" fill="none" xmlns="http://www.w3.org/2000/svg">
<path d="M16 5C16.2652 5 16.5196 4.89464 16.7071 4.70711C16.8946 4.51957 17 4.26522 17 4C17 3.73478 16.8946 3.48043 16.7071 3.29289C16.5196 3.10536 16.2652 3 16 3L8.732 3C8.55646 2.69598 8.30398 2.44353 7.99996 2.26801C7.69593 2.09249 7.35106 2.00009 7 2.00009C6.64894 2.00009 6.30407 2.09249 6.00004 2.26801C5.69602 2.44353 5.44354 2.69598 5.268 3L4 3C3.73478 3 3.48043 3.10536 3.29289 3.29289C3.10536 3.48043 3 3.73478 3 4C3 4.26522 3.10536 4.51957 3.29289 4.70711C3.48043 4.89464 3.73478 5 4 5L5.268 5C5.44354 5.30401 5.69602 5.55647 6.00004 5.73199C6.30407 5.90751 6.64894 5.99991 7 5.99991C7.35106 5.99991 7.69593 5.90751 7.99996 5.73199C8.30398 5.55647 8.55646 5.30401 8.732 5L16 5ZM16 11C16.2652 11 16.5196 10.8946 16.7071 10.7071C16.8946 10.5196 17 10.2652 17 10C17 9.73478 16.8946 9.48043 16.7071 9.29289C16.5196 9.10536 16.2652 9 16 9L14.732 9C14.5565 8.69599 14.304 8.44353 14 8.26801C13.6959 8.09249 13.3511 8.00009 13 8.00009C12.6489 8.00009 12.3041 8.09249 12 8.26801C11.696 8.44353 11.4435 8.69599 11.268 9L4 9C3.73478 9 3.48043 9.10536 3.29289 9.29289C3.10536 9.48043 3 9.73478 3 10C3 10.2652 3.10536 10.5196 3.29289 10.7071C3.48043 10.8946 3.73478 11 4 11L11.268 11C11.4435 11.304 11.696 11.5565 12 11.732C12.3041 11.9075 12.6489 11.9999 13 11.9999C13.3511 11.9999 13.6959 11.9075 14 11.732C14.304 11.5565 14.5565 11.304 14.732 11L16 11ZM17 16C17 16.2652 16.8946 16.5196 16.7071 16.7071C16.5196 16.8946 16.2652 17 16 17L8.732 17C8.55646 17.304 8.30398 17.5565 7.99996 17.732C7.69593 17.9075 7.35106 17.9999 7 17.9999C6.64894 17.9999 6.30407 17.9075 6.00004 17.732C5.69602 17.5565 5.44354 17.304 5.268 17L4 17C3.73478 17 3.48043 16.8946 3.29289 16.7071C3.10536 16.5196 3 16.2652 3 16C3 15.7348 3.10536 15.4804 3.29289 15.2929C3.48043 15.1054 3.73478 15 4 15L5.268 15C5.44354 14.696 5.69602 14.4435 6.00004 14.268C6.30407 14.0925 6.64894 14.0001 7 14.0001C7.35106 14.0001 7.69593 14.0925 7.99996 14.268C8.30398 14.4435 8.55646 14.696 8.732 15L16 15C16.2652 15 16.5196 15.1054 16.7071 15.2929C16.8946 15.4804 17 15.7348 17 16Z" fill="currentColor"/>
</svg>
