<?xml version="1.0" standalone="no"?>
<!DOCTYPE svg PUBLIC "-//W3C//DTD SVG 20010904//EN"
 "http://www.w3.org/TR/2001/REC-SVG-20010904/DTD/svg10.dtd">
<svg version="1.0" xmlns="http://www.w3.org/2000/svg"
 width="700.000000pt" height="700.000000pt" viewBox="0 0 700.000000 700.000000"
 preserveAspectRatio="xMidYMid meet">
<metadata>
Created by potrace 1.14, written by Peter Selinger 2001-2017
</metadata>
<g transform="translate(0.000000,700.000000) scale(0.100000,-0.100000)"
fill="#000000" stroke="none">
<path d="M688 4379 c-7 -5 -10 -9 -7 -9 4 0 1 -28 -7 -63 -7 -35 -26 -141 -43
-237 -17 -96 -33 -186 -35 -200 -3 -14 -17 -92 -31 -175 -14 -82 -37 -211 -50
-285 -13 -74 -33 -189 -45 -255 -11 -66 -22 -129 -24 -140 -6 -30 -18 -97 -23
-120 -2 -11 -6 -36 -9 -55 -3 -19 -12 -69 -20 -110 -24 -129 -47 -116 202
-116 246 1 225 -7 238 91 4 28 9 57 11 65 2 8 6 31 9 50 7 41 14 85 21 120 6
30 9 44 25 138 7 39 18 72 24 73 6 0 94 2 196 3 219 4 260 9 362 46 124 46
228 124 297 224 33 48 69 129 77 174 2 12 6 34 9 50 3 15 8 43 11 62 3 19 13
69 22 110 24 113 21 282 -6 343 -53 119 -149 185 -307 213 -58 10 -881 13
-897 3z m607 -380 c127 -5 175 -69 151 -204 -4 -22 -9 -52 -12 -68 -15 -89
-71 -157 -144 -177 -32 -9 -237 -16 -298 -11 -8 1 -11 10 -7 29 3 15 19 106
35 202 17 96 33 187 36 202 5 27 7 27 87 30 45 2 84 2 87 1 3 -1 32 -2 65 -4z"/>
<path d="M2259 4386 c-1 -1 -6 -28 -13 -66 -3 -19 -8 -46 -11 -60 -2 -13 -16
-90 -30 -170 -14 -80 -27 -158 -30 -175 -3 -16 -7 -39 -9 -50 -6 -29 -18 -97
-23 -120 -2 -11 -6 -36 -9 -55 -3 -19 -7 -44 -9 -55 -2 -11 -8 -45 -14 -75
-10 -51 -14 -76 -27 -155 -2 -16 -9 -55 -15 -85 -6 -30 -12 -71 -15 -90 -2
-19 -7 -42 -9 -50 -2 -8 -7 -31 -10 -50 -3 -19 -16 -96 -30 -170 -36 -200 -55
-313 -55 -331 0 -13 65 -15 611 -15 532 1 611 3 619 16 7 13 11 33 26 130 3
14 7 36 9 50 14 70 24 129 28 165 2 20 -4 20 -386 22 -214 0 -391 4 -394 7 -5
5 34 245 43 271 3 8 104 11 329 11 179 -1 325 0 325 0 0 1 7 37 15 80 8 44 17
95 20 114 6 40 23 134 31 168 l4 22 -326 0 -326 0 6 48 c3 26 8 58 11 72 3 14
8 41 11 60 11 77 24 143 28 147 2 3 181 5 397 6 l392 2 12 60 c7 33 15 78 18
100 3 22 13 76 22 120 8 44 15 85 15 91 0 7 -192 10 -615 10 -338 0 -615 0
-616 0z"/>
<path d="M3782 4381 c-8 -5 -21 -71 -47 -226 -3 -16 -7 -41 -10 -55 -3 -14 -8
-41 -11 -60 -5 -33 -37 -209 -49 -275 -3 -16 -8 -46 -11 -65 -4 -30 -20 -121
-39 -225 -3 -16 -8 -46 -11 -65 -3 -19 -7 -42 -9 -50 -2 -8 -7 -31 -10 -50 -3
-19 -10 -62 -16 -95 -6 -33 -13 -71 -15 -85 -4 -24 -16 -90 -19 -100 0 -3 -4
-26 -8 -51 -13 -77 -17 -102 -27 -154 -13 -67 -19 -103 -26 -145 -3 -19 -7
-42 -10 -50 -4 -14 24 -16 233 -15 l237 0 7 35 c4 19 11 62 14 95 4 33 8 62
10 65 2 3 6 29 10 59 4 30 9 63 11 75 2 12 6 37 9 56 7 54 35 232 40 255 4 18
12 20 79 20 l74 1 35 -111 c20 -60 56 -177 82 -260 25 -82 56 -181 69 -220
l23 -70 247 -1 c246 0 247 0 241 20 -3 12 -7 28 -9 36 -4 13 -132 425 -187
599 -11 35 -19 64 -17 65 2 2 20 13 40 25 126 75 205 240 243 501 3 25 10 61
14 80 4 19 7 67 5 106 -5 126 -73 233 -179 283 -104 49 -160 54 -597 56 -224
1 -411 -1 -416 -4z m634 -397 c49 -24 76 -73 82 -154 5 -81 -16 -154 -56 -193
-48 -46 -96 -59 -229 -62 -109 -3 -123 -1 -123 13 0 16 16 130 25 182 4 26 11
71 20 138 11 78 16 91 38 94 58 8 211 -3 243 -18z"/>
<path d="M5381 4335 c-6 -27 -13 -68 -16 -90 -3 -22 -7 -47 -10 -55 -2 -8 -6
-33 -10 -55 -4 -35 -11 -70 -40 -230 -3 -16 -14 -82 -25 -145 -12 -63 -27
-151 -35 -195 -8 -44 -17 -93 -20 -110 -2 -16 -7 -40 -9 -51 -2 -12 -7 -39
-10 -60 -4 -22 -11 -64 -16 -94 -6 -30 -12 -66 -15 -80 -5 -32 -65 -368 -70
-398 -2 -12 -9 -50 -15 -83 -6 -34 -8 -64 -5 -68 4 -3 103 -6 221 -7 237 -1
217 -7 229 71 3 22 13 78 21 125 21 109 17 90 49 275 15 88 33 165 40 170 7 6
132 10 328 10 l316 -1 10 51 c12 62 23 124 26 150 2 11 6 34 9 50 4 17 9 48
12 70 3 22 7 45 8 50 0 6 -112 11 -319 12 -176 1 -322 2 -325 2 -6 1 49 342
56 349 1 2 180 4 398 4 l394 0 8 52 c4 28 8 53 9 56 8 34 15 71 19 100 3 19
11 67 19 106 l13 70 -618 0 -617 0 -10 -51z"/>
</g>
</svg>
