<?xml version="1.0" encoding="utf-8"?>
<svg version="1.2" baseProfile="tiny" id="Layer_1"
	 xmlns="http://www.w3.org/2000/svg" xmlns:xlink="http://www.w3.org/1999/xlink" x="0px" y="0px" viewBox="0 0 630 630"
	 overflow="visible" xml:space="preserve">
<g>
	<path fill="#C95043" d="M476.2435913,352.4087524h-36.4265747l-13.3549805,76.4959106h36.0203247
		c22.1207275,0,34.9399414-9.8460693,38.4488525-29.5469971l2.8348389-16.5938721
		c0.5357666-2.4285889,0.8080444-5.6652222,0.8080444-9.7120972c0-4.0491333-2.0223389-8.500061-6.0692749-13.3572388
		C494.4557495,354.8373413,487.0316772,352.4087524,476.2435913,352.4087524z"/>
	<path fill="#C95043" d="M0,0v630h630V0H0z M579.4516602,369.4088135l-8.0960083,45.7346191
		c-4.046875,22.3995972-15.9240723,40.8137817-35.6162109,55.2469482
		c-19.6987915,14.437561-43.7122803,21.6530151-72.0427856,21.6530151h-48.163208l-15.7858276,88.6366577h-72.8508301
		l51.3998413-291.4100342h123.4448242c30.4890137,0,52.210144,7.0200195,65.163269,21.046936
		c9.4398804,10.7946777,14.1652832,24.5559082,14.1652832,41.2836914
		C581.0700073,357.2658691,580.5254517,363.2034302,579.4516602,369.4088135z"/>
</g>
</svg>
