<?xml version="1.0" encoding="utf-8"?>
<svg version="1.2" baseProfile="tiny" id="Layer_1"
	 xmlns="http://www.w3.org/2000/svg" xmlns:xlink="http://www.w3.org/1999/xlink" x="0px" y="0px" viewBox="0 0 512 512"
	 overflow="visible" xml:space="preserve">
<g>
	<path fill="#C95043" d="M88.2431641,281.3803711H66.8232422l-7.0205078,39.4199219H27.4033203l22.859375-129.6005859h54.9003906
		c13.5595703,0,23.2197266,3.1220703,28.9804688,9.3603516c4.1982422,4.8007812,6.2998047,10.9208984,6.2998047,18.3603516
		c0,2.5195312-0.2421875,5.1601562-0.7197266,7.9199219l-3.6005859,20.3398438
		c-1.7998047,9.9619141-7.0820312,18.1513672-15.8398438,24.5703125
		C111.5224609,278.1713867,100.8427734,281.3803711,88.2431641,281.3803711z M93.8232422,219.2797852H77.6230469
		l-5.9394531,34.0205078H87.703125c9.8378906,0,15.5390625-4.3789062,17.0996094-13.140625l1.2607422-7.3798828
		c0.2382812-1.0800781,0.359375-2.5195312,0.359375-4.3193359c0-1.8007812-0.8994141-3.7802734-2.6992188-5.9404297
		C101.9228516,220.3598633,98.6210938,219.2797852,93.8232422,219.2797852z"/>
	<path fill="#C95043" d="M232.6005859,320.800293h-90.3603516l22.8603516-129.6005859h90.3603516l-5.0400391,28.0800781h-57.9599609
		l-4.140625,24.2998047h47.8798828l-5.0400391,28.0800781h-47.8798828l-3.5996094,21.0605469h57.9599609L232.6005859,320.800293z"/>
	<path fill="#C95043" d="M328.3583984,191.199707c13.6806641,0,23.4003906,3.0009766,29.1601562,9
		c4.3203125,4.5625,6.4804688,10.3222656,6.4804688,17.2802734c0,2.4023438-0.2421875,4.921875-0.7207031,7.5605469
		l-2.5195312,14.0390625c-1.4404297,7.8027344-3.9316406,14.1025391-7.4697266,18.9003906
		c-3.5410156,4.8007812-7.4707031,8.2207031-11.7900391,10.2597656l16.3798828,52.5605469h-36.3603516l-15.1201172-48.4199219
		h-11.1601562l-7.3798828,48.4199219h-34.5595703l22.859375-129.6005859H328.3583984z M317.0185547,219.2797852h-13.5
		l-4.6796875,31.3203125h12.5996094c6.359375,0,10.9179688-1.5302734,13.6806641-4.5898438
		c2.7587891-3.0605469,4.1396484-7.1103516,4.1396484-12.1503906
		C329.2587891,224.1401367,325.1777344,219.2797852,317.0185547,219.2797852z"/>
	<path fill="#C95043" d="M460.1171875,273.2797852h-47.8808594l-8.2792969,47.5205078h-32.5800781l22.859375-129.6005859h90.3603516
		l-5.0400391,28.0800781h-57.9599609l-4.5,25.9199219h47.8798828L460.1171875,273.2797852z"/>
</g>
</svg>
