<?xml version="1.0" encoding="utf-8"?>
<svg version="1.2" baseProfile="tiny" id="Layer_1"
	 xmlns="http://www.w3.org/2000/svg" xmlns:xlink="http://www.w3.org/1999/xlink" x="0px" y="0px" viewBox="0 0 630 630"
	 overflow="visible" xml:space="preserve">
<rect fill="#C95043" width="630" height="630"/>
<path fill="#FFFFFF" d="M463.6966248,492.0434265h-48.163208l-15.7857971,88.6366272H326.896759l51.3998413-291.4100342h123.4448547
	c30.4890137,0,52.210144,7.02005,65.163269,21.0469666c9.4398804,10.7946777,14.1652832,24.5559082,14.1652832,41.2836914
	c0,5.6652222-0.5445557,11.6027527-1.6183472,17.808136l-8.0960083,45.7346497
	c-4.046875,22.3995972-15.9240723,40.8137817-35.6162109,55.2469177
	C516.0406494,484.8279419,492.0271301,492.0434265,463.6966248,492.0434265z M476.2435608,352.4087524h-36.4265442
	l-13.355011,76.4959412h36.0203247c22.1207275,0,34.9399414-9.8460999,38.4488831-29.5470276l2.8348083-16.5938416
	c0.5357666-2.4285889,0.8080444-5.6652222,0.8080444-9.7121277c0-4.0491028-2.0223389-8.5000305-6.0692444-13.3572083
	C494.455719,354.8373413,487.0316467,352.4087524,476.2435608,352.4087524z"/>
</svg>
